<?xml version="1.0" encoding="utf-8"?>
<svg viewBox="0 0 390 500" xmlns="http://www.w3.org/2000/svg">
  <text style="font-family: 'Times New Roman'; font-size: 16px; white-space: pre;" x="288.874" y="20.203">Search value:</text>
  <rect x="294.421" y="27.704" width="71.13" height="31.007" rx="3" style="fill: rgb(66, 133, 244);"/>
  <text style="fill: rgb(255, 255, 255); font-family: 'Times New Roman'; font-size: 16px; font-weight: 700; text-anchor: middle; white-space: pre;" x="329.514" y="48.711">x = 11.7</text>
  <g id="level1" transform="matrix(1, 0, 0, 1, -383.476593, -47.157631)">
    <circle cx="600.263" cy="139.718" r="25" style="fill: rgb(255, 230, 110);"/>
    <text style="fill: rgb(0, 0, 0); font-family: 'Times New Roman'; font-size: 16px; text-anchor: middle; white-space: pre;" transform="matrix(1, 0, 0, 1, -0.00819, 7.0)"><tspan x="600.065" y="129.282">bin 32</tspan><tspan x="600.065" dy="1em">12.7</tspan></text>
    <text style="fill: #4285f4; font-family: 'Times New Roman'; font-size: 16px; font-weight: 700; text-anchor: middle; white-space: pre;" x="598.985" y="106.553">x &lt; 12.7</text>
  </g>
  <g id="level2" transform="matrix(1, 0, 0, 1, -385.19046, -71.157631)">
    <line x1="600" y1="187.3" x2="494.966" y2="220" stroke="rgb(255, 230, 110)" style="stroke-width: 2px;"/>
    <circle cx="491.226" cy="240" r="25" style="fill: rgb(255, 230, 110);"/>
    <text style="fill: rgb(0, 0, 0); font-family: 'Times New Roman'; font-size: 16px; text-anchor: middle; white-space: pre;"><tspan x="491.098" y="239.2">bin 16</tspan><tspan x="491.098" dy="1em">7.8</tspan></text>
    <text style="fill: #4285f4; font-family: 'Times New Roman'; font-size: 16px; font-weight: 700; text-anchor: middle; white-space: pre;" x="492.086" y="205.888">x ≥ 7.8</text>
    <line x1="601.437" y1="188.006" x2="696.593" y2="215" stroke-width="2" style="stroke: rgb(236, 240, 241);"/>
    <circle cx="703.964" cy="230" r="25" fill="#ecf0f1"/>
    <text style="fill: rgb(149, 165, 166); font-family: 'Times New Roman'; font-size: 16px; text-anchor: middle; white-space: pre;" x="703.958" y="235.5">bin 47</text>
  </g>
  <g id="level3" transform="matrix(1, 0, 0, 1, -265.219574, -87.157631)">
    <line x1="369.908" y1="280.944" x2="300.533" y2="330" stroke-width="2" style="stroke: rgb(236, 240, 241);"/>
    <circle cx="297.666" cy="345" r="25" fill="#ecf0f1"/>
    <text style="fill: rgb(149, 165, 166); font-family: 'Times New Roman'; font-size: 16px; text-anchor: middle; white-space: pre;" x="297.828" y="350.559">bin 7</text>
    <line x1="372.11" y1="281.015" x2="475" y2="335" stroke="rgb(255, 230, 110)" style="stroke-width: 2px;"/>
    <circle cx="475" cy="340" r="25" style="fill: rgb(255, 230, 110);"/>
    <text style="fill: rgb(0, 0, 0); font-family: 'Times New Roman'; font-size: 16px; text-anchor: middle; white-space: pre;" x="474.924" y="338"><tspan x="474.924" y="338">bin 24</tspan><tspan x="474.924" dy="1em">10.2</tspan></text>
    <text style="fill: #4285f4; font-family: 'Times New Roman'; font-size: 16px; font-weight: 700; text-anchor: middle; white-space: pre;" x="475.409" y="305.943">x ≥ 10.2</text>
    <g transform="matrix(1, 0, 0, 1, -119.960342, -2.648396)">
      <text style="fill: rgb(51, 51, 51); font-family: 'Times New Roman'; font-size: 28.2px; white-space: pre;" x="698.062" y="299.07">⋮</text>
    </g>
    <g transform="matrix(1, 0, 0, 1, -409.61496, 98.238594)">
      <text style="fill: rgb(51, 51, 51); font-family: 'Times New Roman'; font-size: 28.2px; white-space: pre;" x="700.487" y="298.761">⋮</text>
    </g>
  </g>
  <g id="level4" transform="matrix(1, 0, 0, 1, -265.219574, -107.157639)">
    <line x1="475.072" y1="383.64" x2="413" y2="420" stroke-width="1.5" style="stroke: rgb(236, 240, 241);"/>
    <circle cx="413" cy="425" r="25" fill="#ecf0f1"/>
    <text style="fill: rgb(149, 165, 166); font-family: 'Times New Roman'; font-size: 16px; text-anchor: middle; white-space: pre;" x="413.069" y="429.5">bin 19</text>
    <line x1="476.808" y1="383.836" x2="537" y2="420" stroke="rgb(255, 230, 110)" style="stroke-width: 2px;"/>
    <circle cx="537" cy="425" r="25" style="fill: rgb(255, 230, 110);"/>
    <text style="fill: rgb(0, 0, 0); font-family: 'Times New Roman'; font-size: 16px; text-anchor: middle; white-space: pre;" x="537" y="423"><tspan x="537" y="423">bin 27</tspan><tspan x="537" dy="1em">11.9</tspan></text>
    <text style="fill: #4285f4; font-family: 'Times New Roman'; font-size: 16px; font-weight: 700; text-anchor: middle; white-space: pre;" x="537.873" y="390.693">x &lt; 11.9</text>
  </g>
  <g id="level5" transform="matrix(1, 0, 0, 1, -265.219574, -127.157639)">
    <line x1="536.957" y1="468.545" x2="501.563" y2="500" stroke="rgb(255, 230, 110)" style="stroke-width: 2px;"/>
    <circle cx="480.633" cy="515" r="25" style="fill: rgb(255, 230, 110);"/>
    <text style="fill: rgb(0, 0, 0); font-family: 'Times New Roman'; font-size: 16px; text-anchor: middle; white-space: pre;" x="479.986" y="514"><tspan x="479.986" y="514">bin 25</tspan><tspan x="479.986" dy="1em">11.2</tspan></text>
    <text style="fill: #4285f4; font-family: 'Times New Roman'; font-size: 16px; font-weight: 700; text-anchor: middle; white-space: pre;" x="479.788" y="481.537">x ≥ 11.6</text>
    <line x1="536.729" y1="469.522" x2="586.771" y2="508" stroke-width="1.5" style="stroke: rgb(236, 240, 241);"/>
    <circle cx="593.448" cy="525" r="25" fill="#ecf0f1"/>
    <text style="fill: rgb(149, 165, 166); font-family: 'Times New Roman'; font-size: 16px; text-anchor: middle; white-space: pre;" x="593.448" y="530.5">bin 29</text>
    <line x1="479.643" y1="539.746" x2="436.003" y2="590" stroke-width="1.5" style="stroke: rgb(236, 240, 241);"/>
  </g>
  <g id="level6" transform="matrix(1, 0, 0, 1, -265.219574, -147.157654)">
    <circle cx="430.41" cy="612" r="25" fill="#ecf0f1"/>
    <text style="fill: rgb(149, 165, 166); font-family: 'Times New Roman'; font-size: 16px; text-anchor: middle; white-space: pre;" x="430.708" y="617.5">bin 24</text>
    <line x1="480.922" y1="559.356" x2="529" y2="605" stroke="rgb(255, 230, 110)" style="stroke-width: 2px;"/>
    <circle cx="529" cy="610" r="30" fill="#27ae60"/>
    <text style="fill: rgb(255, 255, 255); font-family: 'Times New Roman'; font-size: 16px; text-anchor: middle; white-space: pre;" x="529" y="610"><tspan x="529" y="610">bin 26</tspan><tspan x="529" dy="1em">11.4</tspan></text>
  </g>
</svg>